<?xml version="1.0" standalone="no"?>
<!DOCTYPE svg PUBLIC "-//W3C//DTD SVG 20010904//EN"
 "http://www.w3.org/TR/2001/REC-SVG-20010904/DTD/svg10.dtd">
<svg version="1.0" xmlns="http://www.w3.org/2000/svg"
 width="128.000000pt" height="128.000000pt" viewBox="0 0 128.000000 128.000000"
 preserveAspectRatio="xMidYMid meet">
<metadata>
Created by potrace 1.16, written by Peter Selinger 2001-2019
</metadata>
<g transform="translate(0.000000,128.000000) scale(0.016931,-0.016162)"
fill="#000000" stroke="none">
<path d="M3558 7698 c-6 -59 17 -249 38 -320 20 -66 66 -128 95 -128 17 0 19
8 18 83 0 130 -34 294 -72 352 -18 28 -53 55 -71 55 -2 0 -6 -19 -8 -42z"/>
<path d="M4724 6801 c-77 -35 -134 -121 -159 -240 l-7 -34 42 6 c77 10 153
118 176 250 7 42 5 43 -52 18z"/>
<path d="M3690 6634 c-6 -14 -13 -44 -16 -67 -6 -43 -31 -137 -65 -238 -15
-47 -18 -88 -18 -244 0 -103 -2 -189 -5 -193 -3 -3 -17 0 -31 6 l-25 12 33
-63 c65 -122 93 -224 112 -408 9 -77 13 -144 11 -148 -3 -4 -6 -34 -7 -67 -1
-33 -5 -67 -8 -77 -6 -17 -9 -17 -32 5 -88 80 -121 106 -179 145 -141 95 -255
125 -396 104 -107 -16 -114 -21 -114 -84 0 -29 5 -100 10 -159 16 -167 44
-267 118 -416 33 -65 145 -194 216 -247 71 -53 177 -115 197 -115 5 0 29 -9
52 -19 23 -10 62 -25 86 -32 l44 -13 -6 -100 c-4 -55 -10 -102 -15 -105 -5 -3
-12 -15 -16 -26 -7 -22 5 -14 -537 -376 l-386 -258 -129 9 c-71 5 -219 11
-330 15 -190 5 -202 4 -223 -14 -65 -57 -180 -160 -207 -186 l-31 -30 -8 -716
c-4 -394 -4 -726 -1 -737 4 -11 26 -33 49 -48 23 -16 44 -32 45 -36 2 -5 8 -8
13 -8 6 0 15 -5 22 -10 7 -6 21 -17 32 -25 18 -13 -56 -15 -600 -15 -341 1
-626 0 -632 0 -9 0 -13 -19 -13 -59 l0 -59 88 -8 c49 -4 168 -2 272 5 124 7
585 11 1396 11 l1211 0 5 -122 5 -123 -42 -120 c-99 -281 -208 -449 -385 -597
-37 -31 -41 -38 -24 -38 11 0 49 14 83 31 70 35 159 118 269 252 43 53 74 83
77 75 24 -64 21 -183 -6 -252 -28 -71 -74 -162 -90 -176 -3 -3 -16 -23 -29
-45 -22 -37 -78 -113 -91 -125 -3 -3 -20 -27 -39 -55 -19 -27 -38 -53 -44 -57
-7 -5 -7 -8 -1 -8 11 0 80 35 99 51 45 38 60 49 66 49 5 0 77 70 131 128 27
29 75 105 89 142 7 19 17 40 21 45 4 6 10 31 14 57 7 46 8 47 34 41 14 -4 71
-7 126 -7 92 -1 105 1 160 29 l60 30 -65 2 c-93 4 -215 22 -254 38 l-33 14 -7
202 c-4 111 -5 204 -2 206 11 11 104 -46 153 -94 87 -84 186 -154 199 -140 9
9 -44 114 -74 148 -17 20 -50 49 -74 65 -24 16 -45 31 -48 34 -3 3 -27 21 -55
39 -27 19 -53 40 -57 45 -4 6 -8 64 -8 129 l0 117 78 1 c42 0 103 3 135 5 32
3 345 1 695 -5 654 -10 1159 -3 1285 19 50 9 71 9 81 1 9 -8 65 -8 202 -1 104
5 248 10 319 10 72 0 154 3 183 6 l52 7 0 39 c0 35 -2 38 -22 33 -53 -12
-1676 -4 -1825 9 -108 10 -200 25 -254 42 l-46 15 -7 142 c-4 78 -11 413 -16
745 -7 467 -12 606 -22 620 -7 11 -35 39 -63 63 -27 24 -65 58 -83 76 -18 18
-48 44 -65 59 -38 31 -154 133 -177 154 -8 8 -52 47 -95 85 -44 39 -82 72 -85
75 -3 3 -41 36 -85 75 -44 38 -85 74 -91 80 -6 5 -26 24 -45 41 -84 75 -101
128 -97 294 l3 115 115 16 c125 17 191 31 260 55 78 27 233 106 290 148 70 51
198 180 240 243 161 238 259 577 276 953 2 58 6 128 7 157 3 50 2 53 -27 65
-43 18 -345 18 -406 -1 -202 -60 -290 -108 -424 -231 -125 -115 -187 -191
-290 -355 l-44 -69 -7 38 c-12 60 0 186 22 236 11 25 49 86 85 135 35 50 68
98 71 109 9 24 -9 46 -39 46 l-23 0 -3 229 c-3 196 -5 232 -20 247 -27 31 -75
125 -98 194 -13 36 -27 71 -33 78 -16 20 -37 14 -47 -14z m90 -135 c0 -5 11
-32 25 -61 l25 -52 -26 -27 c-21 -22 -31 -26 -45 -19 -28 16 -53 12 -67 -10
-10 -17 -15 -18 -32 -8 -21 13 -27 52 -10 63 6 3 10 14 10 23 0 9 5 34 11 55
8 31 13 36 32 32 12 -3 31 1 42 9 20 14 35 13 35 -5z m83 -196 c3 -32 4 -78 3
-103 -2 -25 -4 -104 -5 -175 l-1 -131 -29 -17 c-16 -9 -32 -17 -35 -17 -8 0
-6 307 3 403 6 75 17 96 47 97 7 0 14 -25 17 -57z m-96 -13 c7 -20 12 -94 12
-172 1 -132 0 -138 -19 -138 -12 0 -32 -7 -45 -16 l-25 -16 -1 108 c-2 241 4
278 44 272 15 -2 26 -14 34 -38z m-117 0 c12 -7 16 -41 18 -176 2 -92 1 -177
-2 -189 -3 -12 -17 -27 -31 -33 l-25 -12 0 210 c0 217 1 225 40 200z m1220
-422 c0 -132 -29 -350 -68 -523 -36 -159 -156 -417 -240 -516 -80 -94 -196
-199 -220 -199 -6 0 -12 -4 -14 -8 -6 -16 -162 -85 -223 -99 -80 -19 -252 -35
-292 -28 -31 6 -33 8 -33 48 0 24 7 97 15 162 45 360 112 592 224 780 20 33
38 62 41 65 4 3 13 15 21 27 81 119 268 249 418 290 77 22 255 51 319 52 l52
1 0 -52z m-1612 -584 c32 -8 77 -25 102 -37 52 -25 190 -156 190 -181 0 -9 5
-16 10 -16 6 0 10 -5 10 -11 0 -5 9 -29 19 -52 18 -40 35 -95 59 -199 6 -25
14 -91 17 -145 3 -54 8 -118 10 -142 l5 -44 -53 7 c-57 6 -209 57 -235 78 -9
7 -26 20 -37 28 -11 8 -45 41 -77 73 -117 120 -189 316 -224 605 l-7 52 78 0
c42 0 102 -7 133 -16z m567 -1379 c43 -38 86 -77 95 -85 9 -8 65 -58 125 -110
61 -52 112 -97 115 -100 3 -3 41 -37 85 -75 96 -84 152 -135 174 -155 9 -9 50
-45 91 -80 41 -36 82 -72 91 -81 15 -15 17 -88 27 -740 6 -398 8 -727 4 -730
-4 -4 -59 -10 -123 -14 l-117 -7 -5 93 c-2 52 -10 227 -16 389 -7 162 -17 306
-22 319 l-10 23 -580 -4 c-499 -3 -581 -5 -589 -18 -12 -19 -13 -720 -1 -720
13 0 21 120 21 341 0 113 3 240 6 281 l7 75 541 -5 c297 -2 543 -6 545 -8 6
-6 19 -354 22 -579 l2 -190 -46 -3 -47 -3 0 367 0 367 -117 -7 c-65 -3 -153
-9 -197 -13 l-78 -6 7 -368 c8 -415 16 -376 -67 -363 l-38 7 -2 371 -3 371
-192 3 c-164 2 -193 0 -207 -14 -14 -13 -16 -60 -16 -380 l0 -364 -42 -1 c-24
0 -68 -3 -98 -5 -160 -11 -529 -26 -788 -31 l-294 -6 8 735 c7 735 7 736 -13
747 -16 8 -24 7 -33 -3 -8 -11 -13 -205 -17 -720 -5 -581 -9 -706 -20 -706 -7
0 -13 3 -13 8 0 4 -16 16 -36 27 -19 10 -45 27 -56 37 -12 10 -27 18 -34 18
-8 0 -17 12 -20 26 -4 15 -5 336 -2 714 l5 688 26 24 c13 13 55 50 93 83 37
33 74 66 81 74 17 16 204 16 408 1 165 -13 289 -12 302 1 6 6 20 16 31 23 77
44 202 122 229 142 17 13 34 24 38 24 3 0 50 29 103 63 54 35 109 70 122 77
14 7 31 19 38 27 7 7 20 13 28 13 8 0 14 5 14 10 0 6 4 10 9 10 9 0 136 79
265 164 79 52 64 56 181 -49z m355 -1617 c0 -68 3 -227 7 -354 6 -216 5 -231
-12 -238 -20 -7 -275 -29 -280 -24 -14 14 -28 300 -29 593 l-1 130 125 5 c69
3 140 7 158 8 l32 2 0 -122z m-490 -243 c3 -192 2 -354 -1 -358 -11 -15 -134
-25 -234 -18 l-100 6 3 275 c1 151 5 314 9 363 l6 87 156 -2 156 -3 5 -350z"/>
<path d="M4641 5671 c-11 -19 -109 -151 -120 -161 -3 -3 -24 -27 -46 -55 -22
-27 -44 -55 -50 -61 -5 -6 -32 -38 -60 -70 -27 -32 -57 -65 -65 -74 -8 -8 -33
-38 -55 -65 -22 -28 -43 -52 -46 -55 -4 -3 -38 -52 -76 -110 -103 -154 -179
-325 -117 -264 11 10 41 36 66 56 134 109 311 323 458 554 38 60 76 118 85
129 8 10 15 23 15 27 0 8 8 20 36 51 6 7 15 23 18 35 4 12 12 22 17 22 6 0 9
12 7 28 -4 35 -51 45 -67 13z"/>
<path d="M3200 5099 c0 -20 31 -117 48 -151 62 -125 218 -266 282 -256 20 3
19 5 -13 68 -58 113 -114 194 -174 251 -59 57 -143 109 -143 88z"/>
<path d="M2650 6346 c0 -25 25 -67 57 -98 69 -65 205 -111 219 -74 7 18 -39
92 -65 106 -11 5 -25 16 -33 22 -29 27 -80 49 -128 55 -43 5 -50 3 -50 -11z"/>
</g>
</svg>
